#!OML:ASF F:\VICON\USERDATA\INSTALL\rory3\rory3.ASF
:FULLY-SPECIFIED
:DEGREES
193
root -0.0952984 17.9393 -0.414076 2.98692 -10.5096 2.37071
lowerback -1.32283 -1.89332 -4.75656
upperback -1.63642 -2.48568 3.06381
thorax -0.60741 -1.1898 5.82033
lowerneck -30.3353 -0.40758 -8.66019
upperneck 2.20999 1.82497 6.20232
head 5.09783 1.27859 3.63312
rclavicle 1.71328e-014 -6.36111e-015
rhumerus -32.2853 -1.02387 -79.8035
rradius 30.3871
rwrist 20.2182
rhand -17.7396 8.26588
rfingers 7.12502
rthumb 8.52163 -21.5422
lclavicle 1.71328e-014 -6.36111e-015
lhumerus 53.9363 6.08477 48.7705
lradius 100.369
lwrist -16.5557
lhand -45.273 23.3421
lfingers 7.12502
lthumb -18.0464 52.5249
rfemur -8.06245 9.07024 13.7841
rtibia 26.3272
rfoot -18.0669 -2.92269
rtoes 5.14247
lfemur 2.43326 -1.9972 -23.2025
ltibia 9.5897
lfoot -10.3359 6.46196
ltoes -13.0061
194
root -0.0958636 17.9387 -0.412732 2.9673 -10.5007 2.4011
lowerback -1.30596 -1.90096 -4.777
upperback -1.64755 -2.49647 3.05123
thorax -0.626636 -1.1942 5.81946
lowerneck -30.4624 -0.445175 -8.60959
upperneck 2.22047 1.76644 6.21075
head 5.12271 1.25277 3.62327
rclavicle 7.5942e-014 -7.95139e-015
rhumerus -32.272 -0.949094 -79.8903
rradius 30.387
rwrist 20.2058
rhand -17.7566 8.25134
rfingers 7.12502
rthumb 8.50527 -21.5574
lclavicle 7.5942e-014 -7.95139e-015
lhumerus 54.0879 6.15279 48.7231
lradius 100.305
lwrist -16.6013
lhand -45.1692 23.6098
lfingers 7.12502
lthumb -17.9464 52.8018
rfemur -8.05247 9.0493 13.7573
rtibia 26.3385
rfoot -18.1068 -2.9395
rtoes 5.00162
lfemur 2.41396 -2.01207 -23.2338
ltibia 9.68083
lfoot -10.4105 6.48748
ltoes -13.0307
195
root -0.0967164 17.9395 -0.413802 2.979 -10.5029 2.3336
lowerback -1.25533 -1.90629 -4.71533
upperback -1.68508 -2.50594 3.0651
thorax -0.694371 -1.19648 5.80143
lowerneck -30.3951 -0.46644 -8.63509
upperneck 2.11612 1.73598 6.28763
head 5.08186 1.24462 3.64729
rclavicle 2.11209e-014 5.56597e-015
rhumerus -32.3012 -0.807387 -80.0083
rradius 30.3988
rwrist 20.1098
rhand -17.8442 8.10777
rfingers 7.12502
rthumb 8.42067 -21.7044
lclavicle 2.11209e-014 5.56597e-015
lhumerus 54.1863 6.22074 48.6605
lradius 100.329
lwrist -16.4271
lhand -45.0754 23.6122
lfingers 7.12502
lthumb -17.8562 52.8124
rfemur -8.06372 9.10292 13.8424
rtibia 26.3382
rfoot -18.1008 -2.99654
rtoes 5.04884
lfemur 2.38098 -2.01211 -23.1533
ltibia 9.78714
lfoot -10.4493 6.47684
ltoes -13.2235
196
root -0.0978871 17.941 -0.416442 2.98346 -10.4804 2.2157
lowerback -1.20404 -1.89274 -4.61232
upperback -1.70952 -2.49016 3.09843
thorax -0.753152 -1.18705 5.78043
lowerneck -30.2221 -0.49944 -8.71457
upperneck 1.91998 1.70683 6.33238
head 4.99663 1.23342 3.66628
rclavicle 1.28496e-014 -2.14687e-014
rhumerus -32.3386 -0.857895 -80.0252
rradius 30.3929
rwrist 20.171
rhand -17.8924 8.1834
rfingers 7.12502
rthumb 8.37422 -21.6306
lclavicle 1.28496e-014 -2.14687e-014
lhumerus 54.3128 6.27012 48.7148
lradius 100.413
lwrist -16.1763
lhand -44.8048 23.2197
lfingers 7.12502
lthumb -17.5958 52.4435
rfemur -8.05249 9.14478 13.9906
rtibia 26.3233
rfoot -18.0898 -3.05594
rtoes 5.21627
lfemur 2.35974 -2.03394 -23.0065
ltibia 9.87859
lfoot -10.4939 6.44086
ltoes -13.1327
197
root -0.098181 17.9384 -0.416875 2.94816 -10.4552 2.16895
lowerback -1.15443 -1.8837 -4.56275
upperback -1.71046 -2.47999 3.11471
thorax -0.784561 -1.18139 5.77127
lowerneck -30.4642 -0.496761 -8.60435
upperneck 2.05208 1.69441 6.26558
head 5.07322 1.22438 3.63036
rclavicle 3.14981e-014 -2.06736e-014
rhumerus -32.3018 -0.978127 -80.0157
rradius 30.3457
rwrist 20.2999
rhand -17.8694 8.24291
rfingers 7.12502
rthumb 8.39635 -21.5702
lclavicle 3.14981e-014 -2.06736e-014
lhumerus 54.4451 6.3443 48.739
lradius 100.225
lwrist -17.0832
lhand -44.6115 23.72
lfingers 7.12502
lthumb -17.4098 52.9604
rfemur -7.97952 9.13565 14.0499
rtibia 26.2956
rfoot -18.1393 -3.00316
rtoes 5.60399
lfemur 2.34507 -2.05984 -22.9577
ltibia 9.95893
lfoot -10.5417 6.4724
ltoes -12.9948
198
root -0.0986637 17.9371 -0.414609 2.91945 -10.4431 2.18932
lowerback -1.16535 -1.88203 -4.58196
upperback -1.70124 -2.47726 3.12131
thorax -0.76825 -1.18052 5.78858
lowerneck -30.6618 -0.523943 -8.55935
upperneck 2.09695 1.65798 6.25791
head 5.11659 1.20831 3.61994
rclavicle 8.36138e-015 -5.56597e-015
rhumerus -32.2678 -0.896438 -80.0551
rradius 30.3408
rwrist 20.2588
rhand -17.9457 8.27995
rfingers 7.12502
rthumb 8.32276 -21.5361
lclavicle 8.36138e-015 -5.56597e-015
lhumerus 54.5727 6.44409 48.7332
lradius 99.9928
lwrist -17.1447
lhand -45.1471 23.3443
lfingers 7.12502
lthumb -17.9252 52.5382
rfemur -7.92633 9.1065 14.0343
rtibia 26.2694
rfoot -18.1201 -3.02048
rtoes 4.9884
lfemur 2.33748 -2.0764 -22.9918
ltibia 10.0135
lfoot -10.5858 6.52042
ltoes -12.8696
199
root -0.099107 17.9374 -0.414198 2.88503 -10.4413 2.23912
lowerback -1.1549 -1.88381 -4.6311
upperback -1.69396 -2.47984 3.1133
thorax -0.764665 -1.18164 5.80838
lowerneck -30.6926 -0.558788 -8.58244
upperneck 1.97596 1.62173 6.29116
head 5.08331 1.19478 3.62938
rclavicle -1.69122e-014 5.56597e-015
rhumerus -32.2564 -0.74376 -80.1328
rradius 30.3821
rwrist 20.0602
rhand -18.0575 8.29188
rfingers 7.12502
rthumb 8.21484 -21.5284
lclavicle -1.69122e-014 5.56597e-015
lhumerus 54.6617 6.53843 48.7095
lradius 99.761
lwrist -16.7985
lhand -46.2229 22.2756
lfingers 7.12502
lthumb -18.9601 51.3715
rfemur -7.90253 9.06597 13.9847
rtibia 26.2642
rfoot -18.0697 -3.05107
rtoes 4.47587
lfemur 2.40283 -2.07874 -23.0452
ltibia 9.99108
lfoot -10.5944 6.46298
ltoes -12.865
200
root -0.0993597 17.9381 -0.414319 2.91515 -10.3937 2.21468
lowerback -1.18266 -1.90464 -4.60295
upperback -1.70435 -2.50677 3.124
thorax -0.756847 -1.1954 5.80232
lowerneck -30.7661 -0.558091 -8.47161
upperneck 1.90355 1.60073 6.17995
head 5.07146 1.17764 3.57212
rclavicle -2.53916e-014 -1.98785e-014
rhumerus -32.2235 -0.707307 -80.1918
rradius 30.3753
rwrist 20.0118
rhand -18.1681 8.16787
rfingers 7.12502
rthumb 8.10812 -21.6566
lclavicle -2.53916e-014 -1.98785e-014
lhumerus 54.7484 6.63829 48.7182
lradius 99.6886
lwrist -16.6621
lhand -46.4826 21.8643
lfingers 7.12502
lthumb -19.2098 50.9356
rfemur -7.91198 9.06043 14.0122
rtibia 26.2643
rfoot -18.0895 -3.05182
rtoes 4.59317
lfemur 2.41034 -2.12642 -23.0032
ltibia 9.9312
lfoot -10.5649 6.43225
ltoes -13.0168
201
root -0.10051 17.937 -0.413609 2.89482 -10.3853 2.21549
lowerback -1.19216 -1.8968 -4.60487
upperback -1.70053 -2.49595 3.11507
thorax -0.749329 -1.19029 5.79377
lowerneck -30.7006 -0.585558 -8.49896
upperneck 1.7593 1.56415 6.25884
head 5.01834 1.16712 3.59604
rclavicle -2.13942e-014 1.43125e-014
rhumerus -32.238 -0.820418 -80.1977
rradius 30.3878
rwrist 20.0819
rhand -18.206 8.24309
rfingers 7.12502
rthumb 8.07156 -21.5828
lclavicle -2.13942e-014 1.43125e-014
lhumerus 54.8428 6.66796 48.7267
lradius 99.7491
lwrist -16.368
lhand -46.4009 21.6209
lfingers 7.12502
lthumb -19.1313 50.7
rfemur -7.87806 9.09068 14.0193
rtibia 26.2804
rfoot -18.1259 -3.06091
rtoes 4.69685
lfemur 2.46007 -2.13361 -22.997
ltibia 9.86382
lfoot -10.5142 6.42442
ltoes -12.8854
202
root -0.10208 17.9373 -0.415522 2.85366 -10.407 2.22505
lowerback -1.17451 -1.86816 -4.63452
upperback -1.6599 -2.45811 3.11509
thorax -0.721201 -1.17283 5.81104
lowerneck -30.7602 -0.622235 -8.56309
upperneck 1.66739 1.53453 6.36969
head 4.99762 1.16324 3.63977
rclavicle 4.5708e-014 -2.14687e-014
rhumerus -32.1852 -0.870728 -80.2033
rradius 30.3848
rwrist 20.0572
rhand -18.255 8.41395
rfingers 7.12502
rthumb 8.02421 -21.4137
lclavicle 4.5708e-014 -2.14687e-014
lhumerus 54.971 6.69969 48.783
lradius 99.7434
lwrist -16.5687
lhand -46.2975 21.7463
lfingers 7.12502
lthumb -19.0318 50.8352
rfemur -7.87037 9.1313 14.027
rtibia 26.3032
rfoot -18.1 -3.15752
rtoes 4.33628
lfemur 2.52946 -2.11025 -23.0019
ltibia 9.7939
lfoot -10.4707 6.4005
ltoes -12.7056
203
root -0.102993 17.936 -0.417998 2.83527 -10.4183 2.25472
lowerback -1.18207 -1.85297 -4.67969
upperback -1.6324 -2.43729 3.11084
thorax -0.689797 -1.16359 5.83179
lowerneck -30.9548 -0.628838 -8.44717
upperneck 1.77177 1.50616 6.28103
head 5.05976 1.14441 3.59241
rclavicle -3.97973e-014 1.43125e-014
rhumerus -32.1484 -0.828387 -80.2336
rradius 30.4024
rwrist 19.927
rhand -18.294 8.72585
rfingers 7.12502
rthumb 7.98661 -21.1033
lclavicle -3.97973e-014 1.43125e-014
lhumerus 55.0866 6.78066 48.8283
lradius 99.6539
lwrist -17.3983
lhand -45.7876 22.5965
lfingers 7.12502
lthumb -18.5414 51.7328
rfemur -7.89894 9.1118 14.0011
rtibia 26.3425
rfoot -18.1145 -3.15269
rtoes 4.02902
lfemur 2.56834 -2.09923 -23.032
ltibia 9.68908
lfoot -10.4426 6.40264
ltoes -12.5748
